<svg id="Layer_1" data-name="Layer 1" xmlns="http://www.w3.org/2000/svg" viewBox="0 0 360 226">
    <defs>
        <style>.cls-1{fill:#fff;}.cls-1,.cls-2,.cls-3{fill-rule:evenodd;}.cls-2{fill:#0097d9;}.cls-3{fill:#e40520;}
        </style>
    </defs>
    <polygon class="cls-1" points="0 0 360 0 360 226 0 226 0 0 0 0"/>
    <path class="cls-2"
          d="M179.77,161a66.19,66.19,0,0,0,0-97.61,64.86,64.86,0,0,0-43.88-17c-36.09,0-65.36,29.48-65.36,65.85s29.27,65.84,65.36,65.84a64.86,64.86,0,0,0,43.88-17Z"/>
    <path class="cls-3"
          d="M223.64,46.39a64.85,64.85,0,0,0-43.87,17,65.87,65.87,0,0,0-6.6,7h13.19a66.45,66.45,0,0,1,5,7H168.18a66.58,66.58,0,0,0-3.76,7h30.69a64.8,64.8,0,0,1,2.77,7H161.65a65.09,65.09,0,0,0-1.9,7h40a66.76,66.76,0,0,1,1.47,13.95,66,66,0,0,1-3.37,20.91H161.65a64,64,0,0,0,2.77,7h30.69a66.58,66.58,0,0,1-3.76,7H168.18a66.45,66.45,0,0,0,5,7h13.19a66.81,66.81,0,0,1-6.59,7,64.85,64.85,0,0,0,43.87,17c36.1,0,65.36-29.48,65.36-65.84s-29.26-65.85-65.36-65.85Z"/>
    <path class="cls-3"
          d="M280.3,148.94a2.11,2.11,0,1,1,2.11,2.12,2.11,2.11,0,0,1-2.11-2.12Zm2.11,1.61a1.62,1.62,0,1,0-1.61-1.61,1.61,1.61,0,0,0,1.61,1.61Zm-.29-.68h-.43V148h.78a.89.89,0,0,1,.48.1.56.56,0,0,1,.23.47.51.51,0,0,1-.32.48l.34.82h-.48l-.28-.74h-.32v-.32h.24a.61.61,0,0,0,.27,0,.27.27,0,0,0,.1-.22.24.24,0,0,0-.1-.19.65.65,0,0,0-.28,0h-.23v1.53Z"/>
    <path class="cls-1"
          d="M266.48,126.51a2.11,2.11,0,1,1,2.11,2.12,2.11,2.11,0,0,1-2.11-2.12Zm2.11,1.61a1.62,1.62,0,1,0-1.61-1.61,1.61,1.61,0,0,0,1.61,1.61Zm-.29-.68h-.43v-1.87h.78a.77.77,0,0,1,.47.1.54.54,0,0,1,.24.46.5.5,0,0,1-.32.48l.34.83h-.48l-.28-.74h-.32v-.32h.24a.45.45,0,0,0,.26,0,.25.25,0,0,0,.11-.21.24.24,0,0,0-.1-.19.55.55,0,0,0-.28,0h-.23v1.54Z"/>
    <polygon class="cls-1"
             points="127.73 128.63 119.59 128.63 124.43 102.97 113.3 128.63 105.88 128.63 104.52 103.12 99.67 128.63 92.29 128.63 98.6 95.25 111.29 95.25 111.96 115.92 120.91 95.25 134.14 95.25 127.73 128.63 127.73 128.63"/>
    <path class="cls-1"
          d="M218.64,128.3a21.21,21.21,0,0,1-5.85.88c-4.16,0-6.43-2.1-6.43-6a13.34,13.34,0,0,1,.24-2.44l.49-2.65.38-2.15,3.77-20.73h8.09l-1.17,6.23h4.15l-1.12,6.6H217l-2.15,11.33a7.08,7.08,0,0,0-.14,1.12c0,1.4.84,2,2.78,2a7.52,7.52,0,0,0,2.19-.26l-1.07,6Z"/>
    <path class="cls-1"
          d="M242.39,101.71a5.57,5.57,0,0,0-.92-.3l-.7-.16a5.08,5.08,0,0,0-.82-.06c-2.67,0-4.59,1.2-7.08,4.41l.72-4.12h-7.37l-5,27.15h8.14c2.91-16.6,4.16-19.51,8.07-19.51a8.06,8.06,0,0,1,1,.07l1,.19,2.94-7.67Z"/>
    <path class="cls-1"
          d="M186.39,110.06c0,3.43,1.92,5.79,6.27,7.57,3.33,1.36,3.84,1.76,3.84,3,0,1.69-1.47,2.46-4.72,2.46A26.37,26.37,0,0,1,184.4,122l-1.12,6.27.36.06,1.51.27a21.11,21.11,0,0,0,2.15.24c2,.15,3.47.23,4.54.23,8.68,0,12.69-2.87,12.69-9.06,0-3.73-1.67-5.91-5.8-7.56-3.45-1.37-3.85-1.68-3.85-2.94,0-1.47,1.37-2.22,4-2.22a51.42,51.42,0,0,1,5.91.41l1.18-6.29a65.17,65.17,0,0,0-7.25-.53c-9.2,0-12.39,4.17-12.36,9.18Z"/>
    <path class="cls-1"
          d="M154.17,128.63h-6.76l.16-2.81c-2.06,2.23-4.8,3.28-8.53,3.28a7.07,7.07,0,0,1-7.44-7.41c0-6.62,5.26-10.47,14.29-10.47a30.27,30.27,0,0,1,3.32.21,6,6,0,0,0,.32-1.77c0-1.79-1.42-2.46-5.22-2.46a30.05,30.05,0,0,0-6.76.75l-1.13.29-.73.18,1.13-6.11a36.78,36.78,0,0,1,9.74-1.44c7,0,10.69,2.76,10.69,8a28.2,28.2,0,0,1-.67,5.38l-1.7,9.64-.28,1.72-.21,1.38-.14,1-.08.73Zm-5.93-12.09a15.21,15.21,0,0,0-1.82-.12c-4.61,0-6.95,1.39-6.95,4.14a2.66,2.66,0,0,0,2.92,2.77c3.32,0,5.71-2.78,5.85-6.79Z"/>
    <path class="cls-1"
          d="M180.86,128.05a32,32,0,0,1-8.34,1.1c-9.09,0-13.83-4.18-13.83-12.17,0-9.32,6-16.18,14.21-16.18,6.7,0,11,3.85,11,9.87a25.75,25.75,0,0,1-1,6.7H166.7a5.28,5.28,0,0,0-.07.86c0,3.15,2.41,4.75,7.13,4.75a21.5,21.5,0,0,0,8.45-1.72l-1.35,6.79Zm-4.33-16.16c0-.56.06-1,.06-1.38,0-2.21-1.42-3.5-3.85-3.5-2.58,0-4.43,1.73-5.19,4.87Z"/>
    <path class="cls-1"
          d="M267.68,116.32c-1.22,9-7.48,13-15.8,13-9.2,0-12.92-5.63-12.92-12.51,0-9.63,6.29-16.15,16-16.15,8.43,0,12.92,5.37,12.92,12.26a17.58,17.58,0,0,1-.22,3.36Zm-8.38-3.47c0-2.84-1.14-5.52-4.48-5.52-4.15,0-6.72,4.94-6.72,9.3,0,3.69,1.76,6.16,4.67,6.11,1.77,0,5.52-2.42,6.27-6.65a19.16,19.16,0,0,0,.26-3.24Z"/>
</svg>