<?xml version="1.0" encoding="utf-8"?>
<!-- Generator: Adobe Illustrator 23.0.0, SVG Export Plug-In . SVG Version: 6.00 Build 0)  
.st0{fill:#0D71B9;}
	.st1{fill:#3D3D39;}
	.st2{fill:#3692D0;}
-->
<svg version="1.1" id="Layer_1" xmlns="http://www.w3.org/2000/svg" xmlns:xlink="http://www.w3.org/1999/xlink" x="0px" y="0px"
	 viewBox="0 0 600.7 181" style="enable-background:new 0 0 600.7 181;" xml:space="preserve">
<style type="text/css">
	.st0{fill:#0D71B9;}
	.st1{fill:#ffffff;}
	.st2{fill:#3692D0;}
</style>
<path class="st0" d="M0,64.4C0.4,74.6,3.2,84.6,7.3,94c4.2,9.4,9.8,18.2,16.7,25.9c6.8,7.8,15,14.4,23.7,20.1
	c8.8,5.6,18.2,10,27.9,13.5c19.5,6.8,40,9.9,60.4,10.5c20.4,0.6,40.7-1.1,60.7-4.8c-20.2,0.7-40.4,0.9-60.4-0.7
	c-10-0.9-19.9-2-29.7-4c-9.8-1.9-19.4-4.3-28.7-7.7c-18.6-6.5-36.1-16.6-49.9-30.6c-6.9-7-12.9-15-17.7-23.7
	C5.6,83.8,1.9,74.4,0,64.4z"/>
<g>
	<g>
		<rect x="291.4" y="88.3" class="st1" width="19.3" height="14.4"/>
		<rect x="259.4" y="65.7" class="st1" width="19.2" height="14.4"/>
		<rect x="259.4" y="88.3" class="st1" width="19.2" height="14.4"/>
		<path class="st1" d="M127.1,153.6l3.4-2.8c-13.4-1.3-25.3-3.5-36.6-6.6l-3.1,2.6c5.2,1.5,10.7,2.7,16.6,3.9
			C114.2,151.9,121,152.9,127.1,153.6z"/>
		<rect x="291.4" y="65.7" class="st1" width="19.3" height="14.4"/>
		<polygon class="st1" points="244.6,0 225.1,0 97.3,105.1 116.9,105.1 		"/>
		<path class="st1" d="M77,158.2l-16.4,13.5h44.6l6.8-5.6C99.6,164.4,87.9,161.8,77,158.2z"/>
		<path class="st1" d="M152.4,126.4c0.8,0,1.5,0,2.3,0c1.9,0,3.7,0,5.5-0.1L313.2,0h-44.6L117.6,124.7
			C128.2,125.8,139.7,126.4,152.4,126.4z"/>
	</g>
</g>
<path class="st0" d="M438.8,181c-7.3-6.6-15.5-12.2-24-17.5c-8.5-5.2-17.3-9.7-26.4-13.9c-18.2-8.1-37.3-14.5-56.9-18.8
	c-19.6-4.3-39.6-6.6-59.7-7.1c-10-0.3-20.1,0-30.1,0.6c-5,0.3-10,0.8-15,1.3c-4.9,0.5-9.7,1-14.5,1.4c-9.6,0.9-19.3,1.7-28.9,2.2
	c-9.6,0.6-19.2,0.9-28.8,1c-19.1,0.1-38.2-1-56.7-4.6C79.6,122,61.7,115.6,47,104c-3.7-2.9-7.2-6-10.5-9.4c-3.3-3.4-6.2-7.1-9.1-11
	c-5.6-7.8-10.2-16.4-14.3-25.4c2,9.6,5.2,19.1,9.8,28.1c4.5,9,10.6,17.3,17.9,24.6c7.3,7.2,15.9,13.2,25,18.1
	c9.1,4.8,18.8,8.4,28.6,11.2c19.7,5.4,39.9,7.5,59.9,8.1c20,0.6,39.9-0.5,59.7-2.3c4.9-0.5,9.9-1,14.7-1.6c4.8-0.6,9.5-1,14.3-1.4
	c9.5-0.8,19.1-1.2,28.6-1.3c19.1-0.2,38.2,1.1,57.2,3.8c19,2.8,37.8,6.9,56.2,12.8c9.2,2.8,18.3,6.2,27.3,10c4.5,1.9,8.9,3.9,13.3,6
	C430.2,176.3,434.6,178.6,438.8,181z"/>
<path class="st2" d="M214.1,145.9c4.9-0.5,9.9-1,14.7-1.6c4.8-0.6,9.5-1,14.3-1.4c9.5-0.8,19.1-1.2,28.6-1.3
	c19.1-0.2,38.2,1.1,57.2,3.8c19,2.8,37.8,6.9,56.2,12.8c9.2,2.8,18.3,6.2,27.3,10c4.5,1.9,8.9,3.9,13.3,6c2.7,1.3,5.4,2.6,8,4.1
	c-3.8-2.6-7.6-5-11.5-7.4c-8.7-5.3-17.9-9.8-27.2-14c-18.7-8.2-38.4-14.5-58.5-18.7c-20.1-4.2-40.7-6.4-61.3-6.7
	c-10.3-0.2-20.6,0.2-30.9,0.9c-5.1,0.4-10.3,0.9-15.3,1.5c-5,0.6-9.9,1.1-14.8,1.6c-9.9,1.1-19.7,1.9-29.6,2.6
	c-9.9,0.7-19.7,1.1-29.5,1.3c-19.6,0.3-39.2-0.6-58.2-4.2c-18.9-3.6-37.3-10-52.5-21.8c-1.8-1.4-3.6-2.8-5.3-4.3
	c0.5,0.6,1.1,1.2,1.6,1.7c7.3,7.2,15.9,13.2,25,18.1c9.1,4.8,18.8,8.4,28.6,11.2c19.7,5.4,39.9,7.5,59.9,8.1
	C174.5,148.8,194.4,147.8,214.1,145.9z"/>
<g>
	<path class="st1" d="M404,34.9c2.1,2.7,3.2,5.8,3.2,9.3c0,5.2-1.7,9.2-5.2,12.2c-3.5,2.9-8.4,4.4-14.9,4.4H359V0.2h27.5
		c6.2,0,10.9,1.3,14.3,4c3.4,2.7,5.1,6.5,5.1,11.5c0,3.7-1,6.7-2.9,9.1c-1.9,2.4-4.5,4-7.6,4.8C398.9,30.4,401.8,32.2,404,34.9z
		 M373.6,24.9h9.6c5.1,0,7.6-2.2,7.6-6.5c0-4.3-2.6-6.5-7.8-6.5h-9.4V24.9z M392.2,42.2c0-2.2-0.7-3.9-2.1-5.1
		c-1.4-1.2-3.5-1.8-6.1-1.8h-10.4v13.6H384C389.5,48.8,392.2,46.6,392.2,42.2z"/>
	<path class="st1" d="M429.5,11.8v12.7H450v11h-20.5V49h23v11.7h-37.7V0.2h37.7v11.6H429.5z"/>
	<path class="st1" d="M475.5,49.5H495v11.2h-34.2V0.2h14.6V49.5z"/>
	<path class="st1" d="M516.4,11.8v12.7h20.5v11h-20.5V49h23v11.7h-37.7V0.2h37.7v11.6H516.4z"/>
	<path class="st1" d="M576.3,29.8l24.4,30.9h-17.7l-20.5-27.1v27.1h-14.6V0.2h14.6v26.6l20.7-26.6h17.6L576.3,29.8z"/>
</g>
<g>
	<path class="st1" d="M375.8,103.6l-8-12.8h-3.7v12.8H359v-32h11.3c3.7,0,6.4,0.9,8.3,2.7c1.9,1.8,2.8,4.1,2.8,7.1
		c0,2.5-0.7,4.6-2.1,6.2c-1.4,1.6-3.4,2.6-6.1,3.1l8.4,13H375.8z M364.1,87.1h5.7c4.2,0,6.3-1.8,6.3-5.5c0-1.8-0.5-3.1-1.5-4.1
		c-1-1-2.6-1.5-4.7-1.5h-5.7V87.1z"/>
	<path class="st1" d="M391.3,71.5v32h-5.2v-32H391.3z"/>
	<path class="st1" d="M400.7,71.5l9.2,26.5l9.3-26.5h5.6l-11.6,32h-6.6l-11.5-32H400.7z"/>
	<path class="st1" d="M433.8,75.7v9.7h11.8v4h-11.8v9.9H447v4.2h-18.3v-32H447v4.2H433.8z"/>
	<path class="st1" d="M468.9,103.6l-8-12.8h-3.7v12.8H452v-32h11.3c3.7,0,6.4,0.9,8.3,2.7c1.9,1.8,2.8,4.1,2.8,7.1
		c0,2.5-0.7,4.6-2.1,6.2c-1.4,1.6-3.4,2.6-6.1,3.1l8.4,13H468.9z M457.2,87.1h5.7c4.2,0,6.3-1.8,6.3-5.5c0-1.8-0.5-3.1-1.5-4.1
		c-1-1-2.6-1.5-4.7-1.5h-5.7V87.1z"/>
	<path class="st1" d="M493,71.5l9.2,26.5l9.3-26.5h5.6l-11.6,32h-6.6l-11.5-32H493z"/>
	<path class="st1" d="M526.1,71.5v32h-5.2v-32H526.1z"/>
	<path class="st1" d="M537.5,99.5h11.1v4h-16.2v-32h5.2V99.5z"/>
	<path class="st1" d="M557.8,99.5h11.1v4h-16.2v-32h5.2V99.5z"/>
	<path class="st1" d="M592,96.6h-13.5l-2.4,6.9h-5.5L582.3,72h5.9l11.7,31.5h-5.5L592,96.6z M590.6,92.6l-5.3-15l-5.3,15H590.6z"/>
</g>
</svg>
